<svg xmlns="http://www.w3.org/2000/svg" width="18" height="16" viewBox="0 0 18 16">
  <path id="_008-twitter" data-name="008-twitter" d="M17.714,36.352a6.816,6.816,0,0,1-1.241.447,4.184,4.184,0,0,0,1.021-1.738h0a.207.207,0,0,0-.3-.253h0a6.916,6.916,0,0,1-1.9.838.456.456,0,0,1-.119.016.485.485,0,0,1-.332-.136,3.74,3.74,0,0,0-2.568-1.036,3.837,3.837,0,0,0-3.763,3.1,4.719,4.719,0,0,0-.092,1.527.155.155,0,0,1-.035.116.14.14,0,0,1-.107.052H8.271A10,10,0,0,1,1.277,35.29h0a.2.2,0,0,0-.333.028h0A4.364,4.364,0,0,0,.419,37.4a4.288,4.288,0,0,0,1.157,2.956,3.348,3.348,0,0,1-.885-.366h0a.2.2,0,0,0-.3.187h0A4.181,4.181,0,0,0,2.656,44H2.573a3.271,3.271,0,0,1-.654-.067h0a.212.212,0,0,0-.231.279h0A3.978,3.978,0,0,0,4.76,47.045a6.839,6.839,0,0,1-4.011,1.3H.3a.3.3,0,0,0-.29.239.338.338,0,0,0,.147.363,10.132,10.132,0,0,0,5.352,1.542,10.213,10.213,0,0,0,4.574-1.037,10.187,10.187,0,0,0,3.347-2.68,11.938,11.938,0,0,0,2.049-3.667,12.293,12.293,0,0,0,.7-4.014V39.03a.725.725,0,0,1,.247-.549,8.029,8.029,0,0,0,1.543-1.81h0a.212.212,0,0,0-.251-.319Z" transform="translate(0 -34.491)"/>
</svg>
