<svg id="telegram" xmlns="http://www.w3.org/2000/svg" width="18" height="17.999" viewBox="0 0 18 17.999">
  <path id="Subtraction_2" data-name="Subtraction 2" d="M9,18A9,9,0,0,1,2.636,2.636,9,9,0,1,1,15.364,15.363,8.941,8.941,0,0,1,9,18Zm-.12-6.15h0l2.249,1.658a.757.757,0,0,0,.362.114c.223,0,.379-.171.451-.5l1.477-6.961a.69.69,0,0,0-.082-.6.4.4,0,0,0-.324-.146.645.645,0,0,0-.218.041L4.119,8.8c-.294.115-.46.264-.456.41,0,.124.133.235.353.3l2.221.693,5.153-3.245a.454.454,0,0,1,.238-.083c.054,0,.094.018.105.048s-.01.079-.063.125L7.5,10.826l-.159,2.289a.57.57,0,0,0,.454-.221L8.88,11.85Z" transform="translate(0)"/>
</svg>
