<svg xmlns="http://www.w3.org/2000/svg" width="18" height="18" viewBox="0 0 18 18">
  <path id="globe" d="M9,0a9,9,0,1,0,9,9A9,9,0,0,0,9,0Zm6.485,5.25H13.069a14.757,14.757,0,0,0-2.116-3.483A7.523,7.523,0,0,1,15.485,5.25ZM12.375,9a7.658,7.658,0,0,1-.357,2.25H5.982A7.658,7.658,0,0,1,5.625,9a7.658,7.658,0,0,1,.357-2.25h6.036A7.658,7.658,0,0,1,12.375,9ZM6.583,12.75h4.833A14.71,14.71,0,0,1,9,16.191,14.678,14.678,0,0,1,6.583,12.75Zm0-7.5A14.711,14.711,0,0,1,9,1.809,14.678,14.678,0,0,1,11.416,5.25ZM7.05,1.767A14.757,14.757,0,0,0,4.931,5.25H2.515A7.523,7.523,0,0,1,7.05,1.767ZM1.846,6.75H4.425A9.012,9.012,0,0,0,4.125,9a9.012,9.012,0,0,0,.3,2.25H1.846a7.494,7.494,0,0,1,0-4.5Zm.669,6H4.931a14.757,14.757,0,0,0,2.12,3.483A7.523,7.523,0,0,1,2.515,12.75Zm8.439,3.483a14.757,14.757,0,0,0,2.116-3.483h2.416a7.523,7.523,0,0,1-4.531,3.483Zm5.2-4.983H13.575a9.012,9.012,0,0,0,.3-2.25,9.012,9.012,0,0,0-.3-2.25h2.578a7.494,7.494,0,0,1,0,4.5Z"/>
</svg>
