<svg xmlns="http://www.w3.org/2000/svg" width="18" height="18" viewBox="0 0 18 18">
  <path id="_027-linkedin" data-name="027-linkedin" d="M16.372,0H1.628A1.628,1.628,0,0,0,0,1.628V16.372A1.628,1.628,0,0,0,1.628,18H16.372A1.628,1.628,0,0,0,18,16.372V1.628A1.628,1.628,0,0,0,16.372,0ZM5.57,15.542a.474.474,0,0,1-.474.474H3.079a.474.474,0,0,1-.474-.474V7.087a.474.474,0,0,1,.474-.474H5.1a.474.474,0,0,1,.474.474ZM4.088,5.816A1.916,1.916,0,1,1,6,3.9,1.916,1.916,0,0,1,4.088,5.816Zm12.023,9.764a.436.436,0,0,1-.436.436H13.511a.436.436,0,0,1-.436-.436V11.615c0-.592.174-2.593-1.546-2.593-1.334,0-1.6,1.37-1.659,1.984v4.574a.436.436,0,0,1-.436.436H7.341a.436.436,0,0,1-.436-.436V7.049a.436.436,0,0,1,.436-.436H9.434a.436.436,0,0,1,.436.436v.738a2.971,2.971,0,0,1,2.795-1.315c3.466,0,3.446,3.238,3.446,5.017v4.092Z"/>
</svg>
