<svg xmlns="http://www.w3.org/2000/svg" width="18" height="18" viewBox="0 0 18 18">
  <g id="نشان_شده" data-name="نشان شده" transform="translate(-1187 -57)">
    <path id="star" d="M17.882,6.857a2.393,2.393,0,0,0-2.3-1.725H12.3l-1-3.2a2.4,2.4,0,0,0-4.61,0l-1,3.2H2.426a2.43,2.43,0,0,0-2.3,1.726A2.547,2.547,0,0,0,1,9.65l2.667,2.015L2.654,14.909a2.507,2.507,0,0,0,.888,2.8,2.323,2.323,0,0,0,2.85-.015L9,15.709l2.612,1.983a2.359,2.359,0,0,0,2.85.014,2.546,2.546,0,0,0,.888-2.8l-1.014-3.244L17.01,9.65a2.507,2.507,0,0,0,.872-2.794ZM16.124,8.4l-3.109,2.347a.789.789,0,0,0-.272.865l1.181,3.773a.968.968,0,0,1-.338,1.063.9.9,0,0,1-1.083-.006L9.448,14.117a.731.731,0,0,0-.888,0L5.5,16.442a.9.9,0,0,1-1.088.01.968.968,0,0,1-.338-1.068l1.185-3.773a.789.789,0,0,0-.272-.865L1.883,8.4a.969.969,0,0,1-.331-1.062.924.924,0,0,1,.874-.656H6.251a.753.753,0,0,0,.714-.538L8.128,2.4a.912.912,0,0,1,1.752,0l1.163,3.743a.753.753,0,0,0,.714.538h3.826a.924.924,0,0,1,.874.656A.969.969,0,0,1,16.126,8.4Z" transform="translate(1186.992 56.81)"/>
  </g>
</svg>
