<svg xmlns="http://www.w3.org/2000/svg" width="246" height="30" viewBox="0 0 246 30">
  <g id="لوگو" transform="translate(-38.623 -281.096)">
    <path id="Union_1" data-name="Union 1" d="M1068.967,645.076a10.389,10.389,0,0,0-1.318-.013,9.044,9.044,0,0,1-1.524-.037c-.651-.091-1.546-.332-1.8-.8a2.319,2.319,0,0,1,.293-1.937c3.385-5.3,6.837-10.549,10.27-15.814,2.088-3.2,4.194-6.4,6.25-9.62a2.885,2.885,0,0,1,2.726-1.463c.68.009,1.252.006,1.735,0,3.243-.017,2.572-.035,5,3.662,5.032,7.657,9.994,15.359,14.991,23.039.445.683,1.03,1.49.422,2.157a3.579,3.579,0,0,1-2.08.773,10.533,10.533,0,0,1-1.644.038c-.438-.013-.878-.024-1.313.006a2.565,2.565,0,0,1-2.534-1.355q-6.28-9.735-12.612-19.439c-.18-.278-.387-.539-.706-.979-2.541,3.91-4.978,7.649-7.4,11.4-1.851,2.86-3.734,5.7-5.508,8.61a3.152,3.152,0,0,1-2.839,1.789Q1069.177,645.1,1068.967,645.076Zm45.325,0a11.732,11.732,0,0,0-1.283-.008,9.476,9.476,0,0,1-1.56-.037c-.693-.094-1.716-.309-1.923-.769a2.741,2.741,0,0,1,.386-2.144c1.537-2.52,3.195-4.966,4.808-7.44,3.847-5.9,7.708-11.79,11.523-17.71a2.913,2.913,0,0,1,2.9-1.569,26.579,26.579,0,0,0,2.847.01,2.414,2.414,0,0,1,2.249,1.255c5.558,8.579,11.147,17.14,16.68,25.735a2.189,2.189,0,0,1,.256,1.841,2.421,2.421,0,0,1-1.7.785,15.1,15.1,0,0,1-1.916.041c-.5-.01-1-.02-1.5.008a2.509,2.509,0,0,1-2.428-1.337q-6.22-9.64-12.483-19.252c-.224-.346-.466-.68-.827-1.2-.522.8-.938,1.418-1.344,2.047-3.907,6.041-7.831,12.071-11.7,18.136a2.989,2.989,0,0,1-2.666,1.625Q1114.457,645.088,1114.292,645.075Zm62.6.008c-4.075-.1-3.362.448-5.606-3.179-3.184-5.148-6.363-10.3-9.739-15.767-.032.7-.062,1.074-.063,1.452q-.005,7.553,0,15.107c0,1.9-.466,2.361-2.336,2.364-.95,0-1.9.018-2.848-.005-1.273-.031-1.845-.554-1.847-1.786q-.022-13.061,0-26.124a1.5,1.5,0,0,1,1.681-1.707c1.859-.05,3.721-.031,5.581-.013a2.174,2.174,0,0,1,1.894,1.234q5.859,9.528,11.768,19.026c.2.316.4.626.669,1.041,1.767-2.851,3.48-5.614,5.191-8.378,2.41-3.9,4.836-7.781,7.216-11.694a2.3,2.3,0,0,1,2.127-1.242c.63,0,1.261,0,1.892,0,1.078,0,2.156-.006,3.235.01,1.41.021,1.912.523,1.914,1.95q.016,12.835,0,25.67c0,1.527-.523,2.008-2.076,2.019q-1.424.009-2.849,0c-1.588-.012-2.1-.509-2.1-2.128-.011-4.846,0-9.692,0-14.538v-1.858l-.253-.042c-.221.329-.454.652-.663.989-3.282,5.314-6.585,10.615-9.825,15.954a2.994,2.994,0,0,1-2.823,1.648Zm-190.842-1.358q-6.091-9.453-12.239-18.869c-.305-.47-.617-.934-1.055-1.595-1.554,2.383-2.985,4.562-4.4,6.751-2.919,4.515-5.852,9.023-8.726,13.565a2.84,2.84,0,0,1-2.817,1.5c-.423-.027-.85-.015-1.276,0a10.553,10.553,0,0,1-1.68-.042,3.457,3.457,0,0,1-1.956-.788c-.621-.649-.061-1.409.357-2.052q5.177-7.947,10.357-15.894c2.046-3.141,4.117-6.266,6.126-9.43a2.858,2.858,0,0,1,2.721-1.466c.725.013,1.326.011,1.829.01,3.139-.011,2.492-.022,4.908,3.657,5.03,7.66,10,15.359,14.995,23.042.438.673.933,1.338.466,2.188-.429.779-1.165.773-1.894.767-.073,0-.146,0-.218,0-.317,0-.633,0-.95-.01-.672-.01-1.345-.021-2.012.025q-.127.009-.248.009A2.557,2.557,0,0,1,986.049,643.725Zm44.966,1.329a6.32,6.32,0,0,1-6.71-6.375h1.207q12.243-.047,24.487-.1c.57,0,1.139-.011,1.708-.037,1.792-.08,2.31-.571,2.342-2.2.035-1.808-.594-2.539-2.349-2.646-6.326-.386-12.655-.735-18.98-1.147a9.465,9.465,0,0,1-6.04-2.327c-1.986-1.842-2.462-4.267-2.417-6.836a8.707,8.707,0,0,1,1.476-5.151,7.618,7.618,0,0,1,5.449-2.927,20.586,20.586,0,0,1,2.723-.2q10.194-.026,20.387-.005c3.473.008,5.9,1.832,6.61,4.925a13.848,13.848,0,0,1,.167,1.582h-1.328l-24.943,0h-.684c-2.256.016-2.874.457-2.926,2.086-.06,1.923.595,2.633,2.752,2.77,4.962.317,9.928.553,14.889.891a40,40,0,0,1,6.31.748,7.092,7.092,0,0,1,5.578,5.526,11.389,11.389,0,0,1-.261,6.6,6.576,6.576,0,0,1-5.114,4.37,18.1,18.1,0,0,1-3.72.431q-5.516.033-11.032.031Q1035.806,645.072,1031.015,645.054ZM1009,645.045a1.435,1.435,0,0,1-.875-.4q-6.774-6.492-13.518-13.016a2.849,2.849,0,0,1-.266-.427c.492-.025.882-.061,1.272-.061q2.7,0,5.4,0,4.246,0,8.492-.006c2.158-.005,2.529-.385,2.535-2.5,0-1.552.016-3.105,0-4.657-.023-1.624-.49-2.081-2.138-2.082q-12.3-.009-24.6,0h-1.444c0-1.762-.052-3.418.023-5.068a1.42,1.42,0,0,1,1.427-1.369c.339-.031.682-.039,1.023-.039q11.96,0,23.919,0a9.894,9.894,0,0,1,5.877,1.4,6.413,6.413,0,0,1,2.839,5.083,68.783,68.783,0,0,1,0,9.3c-.313,3.68-2.548,5.549-6.626,6.119-.4.056-.8.119-1.49.221l7.575,7.273-.2.254-4.133,0C1012.394,645.065,1010.7,645.061,1009,645.045Z" transform="translate(-913 -334)"/>
  </g>
</svg>
