<svg xmlns="http://www.w3.org/2000/svg" xmlns:xlink="http://www.w3.org/1999/xlink" width="18" height="18" viewBox="0 0 18 18">
  <defs>
    <linearGradient id="linear-gradient" x1="0.5" x2="0.5" y2="1" gradientUnits="objectBoundingBox">
      <stop offset="0" stop-color="#efe27c"/>
      <stop offset="1" stop-color="#a6872d"/>
    </linearGradient>
  </defs>
  <path id="shopping-bag" d="M15.75,4.5H13.5a4.5,4.5,0,1,0-9,0H2.25A2.25,2.25,0,0,0,0,6.75v7.5A3.754,3.754,0,0,0,3.75,18h10.5A3.755,3.755,0,0,0,18,14.25V6.75A2.25,2.25,0,0,0,15.75,4.5ZM9,1.5a3,3,0,0,1,3,3H6a3,3,0,0,1,3-3Zm7.5,12.75a2.25,2.25,0,0,1-2.25,2.25H3.75A2.25,2.25,0,0,1,1.5,14.25V6.75A.75.75,0,0,1,2.25,6H4.5V7.5A.75.75,0,1,0,6,7.5V6h6V7.5a.75.75,0,1,0,1.5,0V6h2.25a.75.75,0,0,1,.75.75Z" fill="url(#linear-gradient)"/>
</svg>
